<svg width="152" height="117" viewBox="0 0 152 117" fill="none" xmlns="http://www.w3.org/2000/svg">
<mask id="path-1-inside-1_165_1015" fill="white">
<path fill-rule="evenodd" clip-rule="evenodd" d="M152 58.5C152 62.113 106.736 117 58.6765 117C26.2703 117 0 90.8087 0 58.5C0 26.1913 26.2703 0 58.6765 0C107.485 0 152 54.8871 152 58.5ZM65.9444 37.3553C68.4438 37.3553 70.47 39.8193 70.47 45.7093C70.47 46.9824 70.2586 48.3114 69.9271 49.6126C70.6052 48.4862 71.3836 47.4247 72.2673 46.5437C76.4446 42.3789 79.625 42.0649 81.3923 43.827C83.1596 45.589 82.8448 48.7597 78.6674 52.9245C78.3652 53.2258 78.0419 53.5148 77.702 53.7917C77.9859 53.7725 78.268 53.7624 78.5474 53.7624C84.4551 53.7624 86.9266 55.7825 86.9266 58.2743C86.9266 60.7662 84.4551 62.7863 78.5474 62.7863C77.7466 62.7863 76.9238 62.7034 76.0996 62.56C77.0386 63.1592 77.9182 63.8309 78.6675 64.578C82.8449 68.7428 83.1598 71.9135 81.3924 73.6756C79.6251 75.4376 76.4448 75.1237 72.2674 70.9589C71.5177 70.2114 70.8437 69.3339 70.2425 68.3972C70.3864 69.2194 70.4697 70.0403 70.4697 70.8393C70.4697 76.7292 68.4435 79.1932 65.9441 79.1932C63.4447 79.1932 61.4185 76.7292 61.4185 70.8393C61.4185 70.1302 61.4841 69.4038 61.5995 68.6745C61.045 69.5069 60.4312 70.2856 59.7559 70.9588C55.5785 75.1236 52.3982 75.4375 50.6309 73.6755C48.8635 71.9135 49.1784 68.7427 53.3558 64.5779C54.1192 63.8168 55.0178 63.134 55.9766 62.5264C55.09 62.6902 54.2032 62.7861 53.3418 62.7861C47.4341 62.7861 44.9626 60.7661 44.9626 58.2742C44.9626 55.7823 47.4341 53.7622 53.3418 53.7622C53.6694 53.7622 54.0006 53.7761 54.3341 53.8023C53.9895 53.5221 53.6617 53.2296 53.3557 52.9245C49.1783 48.7597 48.8634 45.5889 50.6308 43.8269C52.3981 42.0649 55.5784 42.3788 59.7558 46.5436C60.544 47.3295 61.2485 48.259 61.8728 49.2501C61.5929 48.0654 61.4189 46.8644 61.4189 45.7093C61.4189 39.8193 63.445 37.3553 65.9444 37.3553ZM66.6223 57.5374L66.5903 57.6509L66.543 57.6776C66.5688 57.6322 66.5953 57.5855 66.6223 57.5374Z"/>
</mask>
<path fill-rule="evenodd" clip-rule="evenodd" d="M152 58.5C152 62.113 106.736 117 58.6765 117C26.2703 117 0 90.8087 0 58.5C0 26.1913 26.2703 0 58.6765 0C107.485 0 152 54.8871 152 58.5ZM65.9444 37.3553C68.4438 37.3553 70.47 39.8193 70.47 45.7093C70.47 46.9824 70.2586 48.3114 69.9271 49.6126C70.6052 48.4862 71.3836 47.4247 72.2673 46.5437C76.4446 42.3789 79.625 42.0649 81.3923 43.827C83.1596 45.589 82.8448 48.7597 78.6674 52.9245C78.3652 53.2258 78.0419 53.5148 77.702 53.7917C77.9859 53.7725 78.268 53.7624 78.5474 53.7624C84.4551 53.7624 86.9266 55.7825 86.9266 58.2743C86.9266 60.7662 84.4551 62.7863 78.5474 62.7863C77.7466 62.7863 76.9238 62.7034 76.0996 62.56C77.0386 63.1592 77.9182 63.8309 78.6675 64.578C82.8449 68.7428 83.1598 71.9135 81.3924 73.6756C79.6251 75.4376 76.4448 75.1237 72.2674 70.9589C71.5177 70.2114 70.8437 69.3339 70.2425 68.3972C70.3864 69.2194 70.4697 70.0403 70.4697 70.8393C70.4697 76.7292 68.4435 79.1932 65.9441 79.1932C63.4447 79.1932 61.4185 76.7292 61.4185 70.8393C61.4185 70.1302 61.4841 69.4038 61.5995 68.6745C61.045 69.5069 60.4312 70.2856 59.7559 70.9588C55.5785 75.1236 52.3982 75.4375 50.6309 73.6755C48.8635 71.9135 49.1784 68.7427 53.3558 64.5779C54.1192 63.8168 55.0178 63.134 55.9766 62.5264C55.09 62.6902 54.2032 62.7861 53.3418 62.7861C47.4341 62.7861 44.9626 60.7661 44.9626 58.2742C44.9626 55.7823 47.4341 53.7622 53.3418 53.7622C53.6694 53.7622 54.0006 53.7761 54.3341 53.8023C53.9895 53.5221 53.6617 53.2296 53.3557 52.9245C49.1783 48.7597 48.8634 45.5889 50.6308 43.8269C52.3981 42.0649 55.5784 42.3788 59.7558 46.5436C60.544 47.3295 61.2485 48.259 61.8728 49.2501C61.5929 48.0654 61.4189 46.8644 61.4189 45.7093C61.4189 39.8193 63.445 37.3553 65.9444 37.3553ZM66.6223 57.5374L66.5903 57.6509L66.543 57.6776C66.5688 57.6322 66.5953 57.5855 66.6223 57.5374Z" fill="black"/>
<path d="M69.9271 49.6126L64.1128 48.1314L75.0673 52.7074L69.9271 49.6126ZM72.2673 46.5437L68.031 42.2946L68.031 42.2946L72.2673 46.5437ZM81.3923 43.827L77.156 48.076L77.1561 48.076L81.3923 43.827ZM78.6674 52.9245L74.4311 48.6755L74.4311 48.6756L78.6674 52.9245ZM77.702 53.7917L73.9122 49.1401L59.2909 61.0527L78.1075 59.778L77.702 53.7917ZM76.0996 62.56L77.1276 56.6488L72.872 67.618L76.0996 62.56ZM78.6675 64.578L74.4313 68.827L74.4313 68.827L78.6675 64.578ZM81.3924 73.6756L85.6287 77.9246L85.6287 77.9246L81.3924 73.6756ZM72.2674 70.9589L76.5036 66.7098L76.5036 66.7098L72.2674 70.9589ZM70.2425 68.3972L75.2918 65.1562L64.3323 69.4318L70.2425 68.3972ZM61.5995 68.6745L67.5258 69.6121L56.6061 65.348L61.5995 68.6745ZM59.7559 70.9588L55.5197 66.7098L55.5197 66.7098L59.7559 70.9588ZM53.3558 64.5779L57.592 68.8269L57.592 68.8269L53.3558 64.5779ZM55.9766 62.5264L59.1884 67.5943L54.8861 56.6263L55.9766 62.5264ZM54.3341 53.8023L53.8642 59.7839L73.0613 61.2921L58.1186 49.1463L54.3341 53.8023ZM53.3557 52.9245L49.1194 57.1735L49.1194 57.1735L53.3557 52.9245ZM50.6308 43.8269L46.3945 39.5779L46.3945 39.5779L50.6308 43.8269ZM59.7558 46.5436L55.5195 50.7926L55.5195 50.7926L59.7558 46.5436ZM61.8728 49.2501L56.796 52.448L67.712 47.8706L61.8728 49.2501ZM66.5903 57.6509L69.5402 62.8756L71.6923 61.6606L72.3642 59.2823L66.5903 57.6509ZM66.6223 57.5374L72.3963 59.1688L61.3943 54.5934L66.6223 57.5374ZM66.543 57.6776L61.328 54.7105L50.5981 73.5703L69.4929 62.9023L66.543 57.6776ZM58.6765 123C84.813 123 109.503 108.195 127.16 93.7487C136.094 86.4387 143.485 79.0101 148.673 73.1372C151.263 70.2055 153.351 67.6081 154.828 65.5603C155.558 64.5476 156.201 63.584 156.689 62.7301C156.929 62.3093 157.191 61.8136 157.41 61.2864C157.553 60.9414 158 59.8595 158 58.5H146C146 57.8353 146.12 57.3431 146.175 57.1394C146.24 56.9011 146.304 56.7414 146.327 56.685C146.372 56.5774 146.374 56.595 146.271 56.7747C146.073 57.1217 145.696 57.7078 145.094 58.5416C143.908 60.187 142.084 62.4704 139.68 65.1925C134.879 70.6271 127.95 77.5977 119.561 84.4611C102.571 98.3616 80.599 111 58.6765 111V123ZM-6 58.5C-6 94.1394 22.9737 123 58.6765 123V111C29.567 111 6 87.4779 6 58.5H-6ZM58.6765 -6C22.9737 -6 -6 22.8606 -6 58.5H6C6 29.5221 29.567 6 58.6765 6V-6ZM158 58.5C158 57.1605 157.567 56.0916 157.425 55.7451C157.211 55.2202 156.954 54.7258 156.717 54.3048C156.236 53.4508 155.603 52.4869 154.882 51.4729C153.425 49.423 151.363 46.8235 148.802 43.8892C143.67 38.0113 136.346 30.577 127.453 23.2615C109.865 8.79339 85.1783 -6 58.6765 -6V6C80.9831 6 102.958 18.6501 119.83 32.5288C128.166 39.3867 135.022 46.3515 139.762 51.7812C142.136 54.5006 143.933 56.7819 145.101 58.4251C145.693 59.2577 146.064 59.8435 146.259 60.1904C146.36 60.3699 146.359 60.3888 146.316 60.2835C146.294 60.2282 146.232 60.0712 146.169 59.8368C146.116 59.6363 146 59.1528 146 58.5H158ZM76.47 45.7093C76.47 42.2136 75.8915 38.8816 74.2767 36.2153C72.4911 33.2671 69.5157 31.3553 65.9444 31.3553V43.3553C65.5487 43.3553 65.0716 43.2473 64.6318 42.9849C64.2079 42.732 64.0319 42.4641 64.0123 42.4318C64.0036 42.4173 64.1277 42.6218 64.2499 43.187C64.3707 43.7461 64.47 44.568 64.47 45.7093H76.47ZM75.7414 51.0938C76.1567 49.4634 76.47 47.6198 76.47 45.7093H64.47C64.47 46.3449 64.3604 47.1594 64.1128 48.1314L75.7414 51.0938ZM68.031 42.2946C66.7061 43.6156 65.639 45.1024 64.7868 46.5178L75.0673 52.7074C75.5714 51.8701 76.0611 51.2338 76.5035 50.7927L68.031 42.2946ZM85.6285 39.5779C83.0962 37.0532 79.6378 36.3145 76.2987 37.1368C73.2754 37.8814 70.5088 39.8243 68.031 42.2946L76.5035 50.7927C77.3139 49.9847 77.9688 49.4719 78.4534 49.1602C78.9433 48.845 79.1799 48.7858 79.1684 48.7887C79.137 48.7964 78.827 48.862 78.3506 48.7426C77.8553 48.6186 77.4394 48.3585 77.156 48.076L85.6285 39.5779ZM82.9036 57.1736C85.38 54.7047 87.3335 51.9427 88.083 48.9177C88.9127 45.5692 88.164 42.1057 85.6285 39.5779L77.1561 48.076C76.8727 47.7935 76.6082 47.3751 76.4814 46.8722C76.3594 46.3878 76.4258 46.0697 76.4352 46.0317C76.4396 46.0141 76.3824 46.2464 76.0672 46.7334C75.7554 47.215 75.2417 47.8674 74.4311 48.6755L82.9036 57.1736ZM81.4918 58.4433C81.9708 58.053 82.4453 57.6305 82.9037 57.1735L74.4311 48.6756C74.2851 48.8211 74.1129 48.9766 73.9122 49.1401L81.4918 58.4433ZM78.5474 47.7624C78.1238 47.7624 77.7062 47.7777 77.2965 47.8054L78.1075 59.778C78.2657 59.7673 78.4122 59.7624 78.5474 59.7624V47.7624ZM92.9266 58.2743C92.9266 54.6894 90.9957 51.7186 88.0469 49.9435C85.38 48.338 82.0474 47.7624 78.5474 47.7624V59.7624C79.6952 59.7624 80.5234 59.8616 81.0884 59.983C81.6598 60.1058 81.8691 60.2311 81.8579 60.2243C81.8291 60.207 81.5596 60.0322 81.3037 59.6059C81.0376 59.1626 80.9266 58.6789 80.9266 58.2743H92.9266ZM78.5474 68.7863C82.0474 68.7863 85.38 68.2107 88.0469 66.6052C90.9957 64.8301 92.9266 61.8593 92.9266 58.2743H80.9266C80.9266 57.8698 81.0376 57.386 81.3037 56.9427C81.5596 56.5165 81.8291 56.3417 81.8579 56.3244C81.8691 56.3176 81.6598 56.4429 81.0884 56.5656C80.5234 56.6871 79.6952 56.7863 78.5474 56.7863V68.7863ZM75.0715 68.4713C76.1677 68.662 77.3397 68.7863 78.5474 68.7863V56.7863C78.1536 56.7863 77.6798 56.7448 77.1276 56.6488L75.0715 68.4713ZM82.9038 60.329C81.7766 59.2051 80.5338 58.2721 79.3271 57.5021L72.872 67.618C73.5433 68.0464 74.0598 68.4566 74.4313 68.827L82.9038 60.329ZM85.6287 77.9246C88.1641 75.3968 88.9128 71.9333 88.0831 68.5848C87.3336 65.5598 85.3801 62.7978 82.9038 60.3289L74.4313 68.827C75.2418 69.6351 75.7555 70.2875 76.0673 70.7691C76.3826 71.2562 76.4397 71.4884 76.4353 71.4708C76.4259 71.4328 76.3595 71.1147 76.4816 70.6303C76.6083 70.1274 76.8729 69.709 77.1562 69.4265L85.6287 77.9246ZM68.0311 75.2079C70.5089 77.6782 73.2755 79.6211 76.2988 80.3657C79.638 81.1881 83.0963 80.4493 85.6287 77.9246L77.1562 69.4265C77.4395 69.144 77.8554 68.8839 78.3507 68.7599C78.8272 68.6406 79.1371 68.7061 79.1685 68.7139C79.18 68.7167 78.9434 68.6576 78.4535 68.3424C77.969 68.0306 77.3141 67.5178 76.5036 66.7098L68.0311 75.2079ZM65.1931 71.6381C65.9664 72.843 66.9032 74.0833 68.0312 75.2079L76.5036 66.7098C76.1321 66.3394 75.721 65.8248 75.2918 65.1562L65.1931 71.6381ZM64.3323 69.4318C64.4284 69.9805 64.4697 70.45 64.4697 70.8393H76.4697C76.4697 69.6307 76.3444 68.4584 76.1526 67.3625L64.3323 69.4318ZM64.4697 70.8393C64.4697 71.9805 64.3704 72.8024 64.2495 73.3615C64.1273 73.9268 64.0032 74.1312 64.012 74.1168C64.0316 74.0844 64.2076 73.8165 64.6315 73.5636C65.0713 73.3012 65.5484 73.1932 65.9441 73.1932V85.1932C69.5154 85.1932 72.4908 83.2814 74.2763 80.3332C75.8911 77.6669 76.4697 74.335 76.4697 70.8393H64.4697ZM65.9441 73.1932C66.3398 73.1932 66.8169 73.3012 67.2567 73.5636C67.6806 73.8165 67.8566 74.0844 67.8762 74.1168C67.8849 74.1312 67.7609 73.9268 67.6387 73.3615C67.5178 72.8024 67.4185 71.9805 67.4185 70.8393H55.4185C55.4185 74.335 55.9971 77.6669 57.6119 80.3332C59.3974 83.2814 62.3728 85.1932 65.9441 85.1932V73.1932ZM67.4185 70.8393C67.4185 70.4951 67.4508 70.086 67.5258 69.6121L55.6732 67.7368C55.5174 68.7215 55.4185 69.7653 55.4185 70.8393H67.4185ZM63.9921 75.2078C65.0098 74.1932 65.8698 73.0865 66.5929 72.001L56.6061 65.348C56.2201 65.9273 55.8525 66.3779 55.5197 66.7098L63.9921 75.2078ZM46.3946 77.9245C48.927 80.4493 52.3853 81.188 55.7245 80.3656C58.7478 79.621 61.5144 77.6782 63.9922 75.2078L55.5197 66.7098C54.7092 67.5178 54.0543 68.0305 53.5698 68.3423C53.0799 68.6575 52.8433 68.7166 52.8548 68.7138C52.8862 68.7061 53.1961 68.6405 53.6726 68.7598C54.1679 68.8839 54.5838 69.144 54.8671 69.4265L46.3946 77.9245ZM49.1195 60.3289C46.6432 62.7978 44.6897 65.5598 43.9402 68.5847C43.1105 71.9333 43.8592 75.3967 46.3946 77.9245L54.8671 69.4265C55.1504 69.7089 55.415 70.1273 55.5417 70.6302C55.6638 71.1146 55.5974 71.4327 55.588 71.4708C55.5836 71.4883 55.6407 71.2561 55.956 70.769C56.2678 70.2874 56.7815 69.6351 57.592 68.8269L49.1195 60.3289ZM52.7648 57.4584C51.5358 58.2373 50.2675 59.1844 49.1195 60.3289L57.592 68.8269C57.9709 68.4492 58.4998 68.0308 59.1884 67.5943L52.7648 57.4584ZM53.3418 68.7861C54.6397 68.7861 55.8979 68.6425 57.0671 68.4264L54.8861 56.6263C54.2822 56.7379 53.7666 56.7861 53.3418 56.7861V68.7861ZM38.9626 58.2742C38.9626 61.8592 40.8936 64.8299 43.8423 66.605C46.5093 68.2105 49.8418 68.7861 53.3418 68.7861V56.7861C52.1941 56.7861 51.3658 56.6869 50.8008 56.5655C50.2295 56.4427 50.0202 56.3175 50.0314 56.3242C50.0602 56.3416 50.3297 56.5163 50.5855 56.9426C50.8516 57.3859 50.9626 57.8697 50.9626 58.2742H38.9626ZM53.3418 47.7622C49.8418 47.7622 46.5093 48.3378 43.8423 49.9433C40.8936 51.7185 38.9626 54.6892 38.9626 58.2742H50.9626C50.9626 58.6787 50.8516 59.1625 50.5855 59.6058C50.3297 60.0321 50.0602 60.2068 50.0314 60.2242C50.0202 60.2309 50.2295 60.1057 50.8008 59.9829C51.3658 59.8615 52.1941 59.7622 53.3418 59.7622V47.7622ZM54.8041 47.8207C54.3267 47.7832 53.8383 47.7622 53.3418 47.7622V59.7622C53.5005 59.7622 53.6745 59.769 53.8642 59.7839L54.8041 47.8207ZM49.1194 57.1735C49.5836 57.6363 50.0643 58.0637 50.5497 58.4582L58.1186 49.1463C57.9146 48.9805 57.7398 48.823 57.5919 48.6754L49.1194 57.1735ZM46.3945 39.5779C43.8591 42.1057 43.1104 45.5691 43.94 48.9177C44.6896 51.9426 46.6431 54.7046 49.1194 57.1735L57.5919 48.6755C56.7814 47.8674 56.2676 47.215 55.9559 46.7334C55.6406 46.2463 55.5835 46.0141 55.5878 46.0316C55.5973 46.0697 55.6637 46.3878 55.5416 46.8722C55.4149 47.3751 55.1503 47.7935 54.867 48.0759L46.3945 39.5779ZM63.992 42.2946C61.5142 39.8242 58.7476 37.8814 55.7244 37.1368C52.3852 36.3144 48.9269 37.0531 46.3945 39.5779L54.867 48.0759C54.5836 48.3584 54.1678 48.6185 53.6725 48.7426C53.196 48.8619 52.8861 48.7963 52.8547 48.7886C52.8432 48.7858 53.0798 48.8449 53.5697 49.1601C54.0542 49.4719 54.7091 49.9846 55.5195 50.7926L63.992 42.2946ZM66.9495 46.0521C66.152 44.7861 65.1768 43.4758 63.992 42.2946L55.5195 50.7926C55.9113 51.1832 56.345 51.7319 56.796 52.448L66.9495 46.0521ZM55.4189 45.7093C55.4189 47.4466 55.6778 49.124 56.0335 50.6295L67.712 47.8706C67.508 47.0069 67.4189 46.2821 67.4189 45.7093H55.4189ZM65.9444 31.3553C62.3732 31.3553 59.3978 33.2671 57.6122 36.2153C55.9974 38.8816 55.4189 42.2136 55.4189 45.7093H67.4189C67.4189 44.568 67.5181 43.7461 67.639 43.187C67.7612 42.6218 67.8853 42.4173 67.8765 42.4318C67.8569 42.4641 67.6809 42.732 67.2571 42.9849C66.8173 43.2473 66.3401 43.3553 65.9444 43.3553V31.3553ZM72.3642 59.2823L72.3963 59.1688L60.8484 55.906L60.8163 56.0195L72.3642 59.2823ZM69.4929 62.9023L69.5402 62.8756L63.6404 52.4261L63.5931 52.4528L69.4929 62.9023ZM61.3943 54.5934C61.3712 54.6343 61.3491 54.6734 61.328 54.7105L71.7581 60.6446C71.7886 60.591 71.8193 60.5366 71.8504 60.4815L61.3943 54.5934Z" fill="black" mask="url(#path-1-inside-1_165_1015)"/>
</svg>
