<svg width="102" height="79" viewBox="0 0 102 79" fill="none" xmlns="http://www.w3.org/2000/svg">
<mask id="path-1-inside-1_86_309" fill="white">
<path fill-rule="evenodd" clip-rule="evenodd" d="M101.421 39.1513C101.421 41.5693 71.2183 78.3026 39.1513 78.3026C17.5286 78.3026 0 60.774 0 39.1513C0 17.5286 17.5286 0 39.1513 0C71.7183 0 101.421 36.7333 101.421 39.1513ZM41.4997 19C43.8225 19 45.7056 21.297 45.7056 26.7874C45.7056 27.9744 45.509 29.2135 45.2008 30.4266C45.8312 29.3764 46.5547 28.3866 47.3762 27.5652C51.2585 23.6829 54.2142 23.3902 55.8567 25.0327C57.4992 26.6752 57.2065 29.6309 53.3242 33.5132C53.0435 33.794 52.743 34.0634 52.4272 34.3214C52.6909 34.3035 52.9529 34.2941 53.2124 34.2941C58.7028 34.2941 60.9997 36.1772 60.9997 38.5001C60.9997 40.8229 58.7028 42.706 53.2124 42.706C52.4683 42.706 51.7038 42.6287 50.9381 42.4952C51.8107 43.0537 52.6281 43.6798 53.3245 44.3762C57.2068 48.2585 57.4994 51.2142 55.8569 52.8567C54.2144 54.4992 51.2587 54.2065 47.3764 50.3242C46.6795 49.6274 46.0531 48.8093 45.4943 47.936C45.6281 48.7026 45.7055 49.4679 45.7055 50.2128C45.7055 55.7032 43.8225 58.0001 41.4996 58.0001C39.1767 58.0001 37.2937 55.7032 37.2937 50.2128C37.2937 49.5518 37.3546 48.8746 37.4619 48.1948C36.9465 48.9708 36.376 49.6967 35.7485 50.3242C31.8662 54.2065 28.9105 54.4992 27.2679 52.8567C25.6254 51.2141 25.9181 48.2584 29.8004 44.3761C30.5099 43.6667 31.345 43.0302 32.2361 42.4637C31.4121 42.6165 30.5879 42.7059 29.7874 42.7059C24.297 42.7059 22 40.8229 22 38.5C22 36.1771 24.297 34.2941 29.7874 34.2941C30.0917 34.2941 30.3995 34.307 30.7094 34.3314C30.3891 34.0703 30.0845 33.7976 29.8001 33.5132C25.9178 29.6309 25.6252 26.6752 27.2677 25.0327C28.9102 23.3902 31.8659 23.6828 35.7482 27.5652C36.4807 28.2977 37.1354 29.1641 37.7155 30.0878C37.4555 28.9836 37.2937 27.8641 37.2937 26.7874C37.2937 21.297 39.1768 19 41.4997 19ZM42.1302 37.8124L42.1002 37.9186L42.0562 37.9436C42.0802 37.9011 42.1049 37.8574 42.1302 37.8124Z"/>
</mask>
<path fill-rule="evenodd" clip-rule="evenodd" d="M101.421 39.1513C101.421 41.5693 71.2183 78.3026 39.1513 78.3026C17.5286 78.3026 0 60.774 0 39.1513C0 17.5286 17.5286 0 39.1513 0C71.7183 0 101.421 36.7333 101.421 39.1513ZM41.4997 19C43.8225 19 45.7056 21.297 45.7056 26.7874C45.7056 27.9744 45.509 29.2135 45.2008 30.4266C45.8312 29.3764 46.5547 28.3866 47.3762 27.5652C51.2585 23.6829 54.2142 23.3902 55.8567 25.0327C57.4992 26.6752 57.2065 29.6309 53.3242 33.5132C53.0435 33.794 52.743 34.0634 52.4272 34.3214C52.6909 34.3035 52.9529 34.2941 53.2124 34.2941C58.7028 34.2941 60.9997 36.1772 60.9997 38.5001C60.9997 40.8229 58.7028 42.706 53.2124 42.706C52.4683 42.706 51.7038 42.6287 50.9381 42.4952C51.8107 43.0537 52.6281 43.6798 53.3245 44.3762C57.2068 48.2585 57.4994 51.2142 55.8569 52.8567C54.2144 54.4992 51.2587 54.2065 47.3764 50.3242C46.6795 49.6274 46.0531 48.8093 45.4943 47.936C45.6281 48.7026 45.7055 49.4679 45.7055 50.2128C45.7055 55.7032 43.8225 58.0001 41.4996 58.0001C39.1767 58.0001 37.2937 55.7032 37.2937 50.2128C37.2937 49.5518 37.3546 48.8746 37.4619 48.1948C36.9465 48.9708 36.376 49.6967 35.7485 50.3242C31.8662 54.2065 28.9105 54.4992 27.2679 52.8567C25.6254 51.2141 25.9181 48.2584 29.8004 44.3761C30.5099 43.6667 31.345 43.0302 32.2361 42.4637C31.4121 42.6165 30.5879 42.7059 29.7874 42.7059C24.297 42.7059 22 40.8229 22 38.5C22 36.1771 24.297 34.2941 29.7874 34.2941C30.0917 34.2941 30.3995 34.307 30.7094 34.3314C30.3891 34.0703 30.0845 33.7976 29.8001 33.5132C25.9178 29.6309 25.6252 26.6752 27.2677 25.0327C28.9102 23.3902 31.8659 23.6828 35.7482 27.5652C36.4807 28.2977 37.1354 29.1641 37.7155 30.0878C37.4555 28.9836 37.2937 27.8641 37.2937 26.7874C37.2937 21.297 39.1768 19 41.4997 19ZM42.1302 37.8124L42.1002 37.9186L42.0562 37.9436C42.0802 37.9011 42.1049 37.8574 42.1302 37.8124Z" fill="black"/>
<path d="M45.2008 30.4266L39.3855 28.9494L50.3453 33.5144L45.2008 30.4266ZM47.3762 27.5652L43.1335 23.3225L43.1335 23.3225L47.3762 27.5652ZM53.3242 33.5132L57.5669 37.7559L57.5669 37.7559L53.3242 33.5132ZM52.4272 34.3214L48.6304 29.6755L34.0605 41.5825L52.8337 40.3077L52.4272 34.3214ZM53.2124 42.706L53.2124 36.706H53.2124V42.706ZM50.9381 42.4952L51.9689 36.5844L47.7035 47.5487L50.9381 42.4952ZM45.4943 47.936L50.5482 44.702L39.5837 48.9677L45.4943 47.936ZM37.4619 48.1948L43.3886 49.1298L32.4638 44.8752L37.4619 48.1948ZM35.7485 50.3242L39.9911 54.5669L39.9911 54.5669L35.7485 50.3242ZM29.8004 44.3761L34.043 48.6188L34.043 48.6188L29.8004 44.3761ZM32.2361 42.4637L35.4548 47.5273L31.1424 36.5643L32.2361 42.4637ZM22 38.5L28 38.5L28 38.5L22 38.5ZM30.7094 34.3314L30.2381 40.3129L49.3921 41.8219L34.5008 29.6811L30.7094 34.3314ZM27.2677 25.0327L31.5103 29.2754L31.5103 29.2754L27.2677 25.0327ZM37.7155 30.0878L32.6345 33.2789L43.5558 28.7123L37.7155 30.0878ZM42.1002 37.9186L45.0561 43.14L47.2057 41.9231L47.8755 39.5455L42.1002 37.9186ZM42.1302 37.8124L47.9054 39.4393L36.8982 34.8754L42.1302 37.8124ZM42.0562 37.9436L36.8371 34.9837L26.1375 53.8499L45.012 43.165L42.0562 37.9436ZM39.1513 84.3026C57.2979 84.3026 74.2265 74.0298 86.1172 64.2719C92.1694 59.3053 97.1773 54.2575 100.703 50.2544C102.462 48.2576 103.899 46.4673 104.932 45.0302C105.44 44.3228 105.913 43.6156 106.286 42.9604C106.47 42.6389 106.687 42.2284 106.877 41.7712C106.991 41.4954 107.421 40.4698 107.421 39.1513H95.4205C95.4205 38.4701 95.5436 37.9567 95.6056 37.7268C95.6769 37.4624 95.7515 37.2724 95.7891 37.1815C95.8621 37.0051 95.9065 36.9381 95.8607 37.0185C95.776 37.1671 95.5683 37.497 95.1884 38.0254C94.4447 39.06 93.2716 40.5362 91.6977 42.3231C88.5584 45.8876 84.0115 50.4765 78.5048 54.9955C67.2777 64.2088 53.0717 72.3026 39.1513 72.3026V84.3026ZM-6 39.1513C-6 64.0877 14.2149 84.3026 39.1513 84.3026V72.3026C20.8423 72.3026 6 57.4603 6 39.1513H-6ZM39.1513 -6C14.2149 -6 -6 14.2149 -6 39.1513H6C6 20.8423 20.8423 6 39.1513 6V-6ZM107.421 39.1513C107.421 37.8527 107.004 36.8402 106.891 36.5629C106.706 36.1079 106.492 35.6987 106.312 35.377C105.944 34.7218 105.478 34.0143 104.976 33.3056C103.956 31.8664 102.537 30.074 100.796 28.0746C97.3078 24.0665 92.3433 19.013 86.3171 14.0409C74.464 4.26102 57.5385 -6 39.1513 -6V6C53.3311 6 67.5402 14.1056 78.68 23.2969C84.1502 27.8104 88.6467 32.3936 91.7449 35.9531C93.2981 37.7374 94.4536 39.2115 95.1852 40.2439C95.5588 40.7711 95.7631 41.1007 95.8465 41.2492C95.8915 41.3295 95.8485 41.2637 95.7776 41.0896C95.741 40.9998 95.6687 40.8125 95.5996 40.5521C95.5394 40.3254 95.4205 39.8207 95.4205 39.1513H107.421ZM51.7056 26.7874C51.7056 23.4937 51.1635 20.3063 49.61 17.7335C47.8863 14.8787 44.9914 13 41.4997 13V25C41.0564 25 40.5348 24.8799 40.0558 24.5932C39.5933 24.3165 39.3842 24.0137 39.3374 23.9362C39.3014 23.8765 39.4031 24.0237 39.5098 24.5186C39.6151 25.0071 39.7056 25.745 39.7056 26.7874H51.7056ZM51.0162 31.9038C51.4077 30.3623 51.7056 28.61 51.7056 26.7874H39.7056C39.7056 27.3387 39.6103 28.0646 39.3855 28.9494L51.0162 31.9038ZM43.1335 23.3225C41.8715 24.5845 40.86 25.9999 40.0563 27.3389L50.3453 33.5144C50.8023 32.753 51.2379 32.1887 51.6188 31.8078L43.1335 23.3225ZM60.0993 20.7901C57.6303 18.3211 54.2549 17.6025 51.0174 18.4022C48.0996 19.123 45.4625 20.9936 43.1335 23.3225L51.6188 31.8078C52.3559 31.0707 52.9416 30.613 53.3616 30.342C53.7869 30.0675 53.963 30.0353 53.8953 30.052C53.8074 30.0737 53.4454 30.14 52.9227 30.0087C52.3813 29.8727 51.9275 29.5888 51.614 29.2754L60.0993 20.7901ZM57.5669 37.7559C59.8958 35.4269 61.7664 32.7898 62.4872 29.872C63.2869 26.6345 62.5683 23.2591 60.0993 20.7901L51.614 29.2754C51.3006 28.9619 51.0167 28.5081 50.8807 27.9667C50.7494 27.444 50.8156 27.082 50.8374 26.9941C50.8541 26.9264 50.8219 27.1025 50.5474 27.5278C50.2764 27.9478 49.8187 28.5335 49.0816 29.2706L57.5669 37.7559ZM56.224 38.9674C56.6788 38.5956 57.1302 38.1925 57.5669 37.7559L49.0816 29.2706C48.9567 29.3955 48.8072 29.5311 48.6304 29.6755L56.224 38.9674ZM53.2124 28.2941C52.8083 28.2941 52.4105 28.3088 52.0207 28.3352L52.8337 40.3077C52.9713 40.2983 53.0974 40.2941 53.2124 40.2941V28.2941ZM66.9997 38.5001C66.9997 35.0083 65.1211 32.1135 62.2663 30.3897C59.6935 28.8362 56.506 28.2941 53.2124 28.2941V40.2941C54.2548 40.2941 54.9926 40.3847 55.4812 40.49C55.9761 40.5966 56.1233 40.6984 56.0636 40.6623C55.9861 40.6155 55.6833 40.4065 55.4065 39.944C55.1199 39.465 54.9997 38.9434 54.9997 38.5001H66.9997ZM53.2124 48.706C56.506 48.706 59.6935 48.1639 62.2663 46.6104C65.1211 44.8867 66.9997 41.9918 66.9997 38.5001H54.9997C54.9997 38.0568 55.1199 37.5352 55.4065 37.0562C55.6833 36.5937 55.9861 36.3846 56.0636 36.3378C56.1233 36.3018 55.9761 36.4035 55.4812 36.5102C54.9926 36.6155 54.2548 36.706 53.2124 36.706L53.2124 48.706ZM49.9072 48.406C50.9457 48.5871 52.0603 48.706 53.2124 48.706V36.706C52.8764 36.706 52.462 36.6704 51.9689 36.5844L49.9072 48.406ZM57.5671 40.1335C56.4934 39.0598 55.3131 38.1717 54.1726 37.4417L47.7035 47.5487C48.3083 47.9358 48.7628 48.2998 49.0818 48.6188L57.5671 40.1335ZM60.0996 57.0993C62.5686 54.6303 63.2872 51.2549 62.4874 48.0174C61.7666 45.0996 59.8961 42.4625 57.5671 40.1335L49.0818 48.6188C49.8189 49.3559 50.2767 49.9416 50.5477 50.3616C50.8222 50.7869 50.8543 50.963 50.8376 50.8953C50.8159 50.8074 50.7496 50.4454 50.8809 49.9227C51.017 49.3813 51.3008 48.9275 51.6143 48.614L60.0996 57.0993ZM43.1338 54.5669C45.4627 56.8958 48.0999 58.7664 51.0177 59.4872C54.2552 60.2869 57.6305 59.5683 60.0996 57.0993L51.6143 48.614C51.9277 48.3006 52.3815 48.0167 52.9229 47.8807C53.4457 47.7494 53.8076 47.8156 53.8955 47.8374C53.9632 47.8541 53.7872 47.8219 53.3618 47.5474C52.9419 47.2764 52.3561 46.8187 51.619 46.0816L43.1338 54.5669ZM40.4404 51.1699C41.1707 52.3112 42.0593 53.4924 43.1338 54.5669L51.619 46.0816C51.2998 45.7623 50.9355 45.3074 50.5482 44.702L40.4404 51.1699ZM39.5837 48.9677C39.6698 49.4614 39.7055 49.8764 39.7055 50.2128H51.7055C51.7055 49.0595 51.5864 47.9437 51.4049 46.9042L39.5837 48.9677ZM39.7055 50.2128C39.7055 51.2552 39.615 51.993 39.5097 52.4816C39.403 52.9765 39.3013 53.1237 39.3373 53.064C39.3841 52.9865 39.5932 52.6837 40.0557 52.4069C40.5347 52.1203 41.0563 52.0001 41.4996 52.0001V64.0001C44.9913 64.0001 47.8862 62.1215 49.6099 59.2667C51.1634 56.6939 51.7055 53.5064 51.7055 50.2128H39.7055ZM41.4996 52.0001C41.9429 52.0001 42.4645 52.1203 42.9435 52.4069C43.406 52.6837 43.6151 52.9865 43.6618 53.064C43.6979 53.1237 43.5961 52.9765 43.4895 52.4816C43.3842 51.993 43.2937 51.2552 43.2937 50.2128H31.2937C31.2937 53.5064 31.8357 56.6939 33.3892 59.2667C35.113 62.1215 38.0079 64.0001 41.4996 64.0001V52.0001ZM43.2937 50.2128C43.2937 49.9156 43.3215 49.5548 43.3886 49.1298L31.5352 47.2598C31.3877 48.1945 31.2937 49.188 31.2937 50.2128H43.2937ZM39.9911 54.5669C40.9605 53.5975 41.7765 52.5433 42.4599 51.5144L32.4638 44.8752C32.1164 45.3982 31.7916 45.7958 31.5058 46.0816L39.9911 54.5669ZM23.0253 57.0993C25.4943 59.5683 28.8697 60.2869 32.1072 59.4872C35.025 58.7664 37.6621 56.8958 39.9911 54.5669L31.5058 46.0816C30.7688 46.8187 30.183 47.2764 29.7631 47.5474C29.3377 47.8219 29.1617 47.8541 29.2294 47.8373C29.3172 47.8156 29.6792 47.7494 30.202 47.8807C30.7433 48.0167 31.1971 48.3006 31.5106 48.614L23.0253 57.0993ZM25.5577 40.1335C23.2288 42.4625 21.3582 45.0996 20.6375 48.0174C19.8377 51.2549 20.5563 54.6303 23.0253 57.0993L31.5106 48.614C31.824 48.9275 32.1079 49.3813 32.2439 49.9226C32.3753 50.4454 32.309 50.8074 32.2873 50.8952C32.2705 50.963 32.3027 50.7869 32.5772 50.3615C32.8482 49.9416 33.306 49.3559 34.043 48.6188L25.5577 40.1335ZM29.0174 37.4001C27.8559 38.1385 26.6513 39.04 25.5577 40.1335L34.043 48.6188C34.3684 48.2934 34.8341 47.9219 35.4548 47.5273L29.0174 37.4001ZM29.7874 48.7059C31.0258 48.7059 32.2224 48.5685 33.3298 48.3632L31.1424 36.5643C30.6019 36.6645 30.15 36.7059 29.7874 36.7059V48.7059ZM16 38.5C16 41.9917 17.8787 44.8866 20.7335 46.6103C23.3063 48.1638 26.4937 48.7059 29.7874 48.7059V36.7059C28.745 36.7059 28.0071 36.6154 27.5186 36.5101C27.0237 36.4034 26.8765 36.3017 26.9362 36.3377C27.0137 36.3845 27.3165 36.5936 27.5932 37.0561C27.8799 37.5351 28 38.0567 28 38.5H16ZM29.7874 28.2941C26.4937 28.2941 23.3063 28.8361 20.7335 30.3896C17.8787 32.1134 16 35.0083 16 38.5L28 38.5C28 38.9433 27.8799 39.4649 27.5932 39.9439C27.3165 40.4064 27.0137 40.6155 26.9362 40.6622C26.8765 40.6983 27.0237 40.5965 27.5186 40.4899C28.0071 40.3846 28.745 40.2941 29.7874 40.2941V28.2941ZM31.1806 28.3499C30.7265 28.3141 30.2611 28.2941 29.7874 28.2941V40.2941C29.9224 40.2941 30.0725 40.2998 30.2381 40.3129L31.1806 28.3499ZM25.5575 37.7559C25.9998 38.1981 26.4572 38.606 26.918 38.9817L34.5008 29.6811C34.321 29.5345 34.1693 29.3971 34.0428 29.2706L25.5575 37.7559ZM23.0251 20.7901C20.556 23.2591 19.8374 26.6345 20.6372 29.872C21.358 32.7898 23.2285 35.4269 25.5575 37.7559L34.0428 29.2706C33.3057 28.5335 32.848 27.9478 32.5769 27.5278C32.3024 27.1025 32.2703 26.9264 32.287 26.9941C32.3087 27.082 32.375 27.444 32.2437 27.9667C32.1077 28.5081 31.8238 28.9619 31.5103 29.2754L23.0251 20.7901ZM39.9909 23.3225C37.6619 20.9936 35.0248 19.123 32.107 18.4022C28.8694 17.6025 25.4941 18.321 23.0251 20.7901L31.5103 29.2754C31.1969 29.5888 30.7431 29.8727 30.2017 30.0087C29.679 30.14 29.317 30.0737 29.2291 30.052C29.1614 30.0353 29.3375 30.0675 29.7628 30.342C30.1828 30.613 30.7685 31.0707 31.5056 31.8078L39.9909 23.3225ZM42.7966 26.8967C42.0439 25.6983 41.1192 24.4508 39.9909 23.3225L31.5056 31.8078C31.8423 32.1445 32.2269 32.6299 32.6345 33.2789L42.7966 26.8967ZM31.2937 26.7874C31.2937 28.4445 31.5399 30.0389 31.8753 31.4633L43.5558 28.7123C43.3711 27.9283 43.2937 27.2837 43.2937 26.7874H31.2937ZM41.4997 13C38.0079 13 35.1131 14.8787 33.3893 17.7335C31.8358 20.3063 31.2937 23.4937 31.2937 26.7874H43.2937C43.2937 25.745 43.3843 25.0071 43.4896 24.5186C43.5962 24.0237 43.698 23.8765 43.6619 23.9362C43.6151 24.0137 43.4061 24.3165 42.9436 24.5932C42.4646 24.8799 41.943 25 41.4997 25V13ZM47.8755 39.5455L47.9054 39.4393L36.3549 36.1856L36.325 36.2918L47.8755 39.5455ZM45.012 43.165L45.0561 43.14L39.1444 32.6972L39.1003 32.7222L45.012 43.165ZM36.8982 34.8754C36.8773 34.9125 36.857 34.9486 36.8371 34.9837L47.2753 40.9035C47.3035 40.8537 47.3325 40.8024 47.3622 40.7495L36.8982 34.8754Z" fill="black" mask="url(#path-1-inside-1_86_309)"/>
</svg>
