<svg width="120" height="45
" viewBox="0 0 257 86" fill="none" xmlns="http://www.w3.org/2000/svg">
<mask id="path-1-inside-1_165_1263" fill="white">
<path fill-rule="evenodd" clip-rule="evenodd" d="M72.5333 43C72.5333 44.7293 50.9335 71 28 71C12.536 71 0 58.464 0 43C0 27.536 12.536 15 28 15C51.291 15 72.5333 41.2707 72.5333 43ZM29.6795 28.5883C31.3407 28.5883 32.6875 30.231 32.6875 34.1576C32.6875 35.0065 32.5469 35.8927 32.3265 36.7603C32.7773 36.0093 33.2947 35.3013 33.8822 34.7139C36.6587 31.9374 38.7726 31.7281 39.9473 32.9028C41.1219 34.0774 40.9126 36.1913 38.1361 38.9678C37.9353 39.1686 37.7204 39.3612 37.4946 39.5458C37.6832 39.533 37.8705 39.5263 38.0561 39.5263C41.9827 39.5263 43.6254 40.873 43.6254 42.5343C43.6254 44.1955 41.9827 45.5422 38.0561 45.5422C37.524 45.5422 36.9773 45.487 36.4296 45.3915C37.0537 45.7909 37.6383 46.2386 38.1363 46.7367C40.9128 49.5132 41.1221 51.627 39.9474 52.8017C38.7727 53.9764 36.6589 53.7671 33.8824 50.9906C33.384 50.4922 32.936 49.9071 32.5363 49.2826C32.632 49.8308 32.6874 50.3782 32.6874 50.9109C32.6874 54.8375 31.3407 56.4802 29.6794 56.4802C28.0182 56.4802 26.6715 54.8375 26.6715 50.9109C26.6715 50.4382 26.7151 49.9539 26.7918 49.4677C26.4232 50.0226 26.0152 50.5418 25.5664 50.9906C22.7899 53.7671 20.676 53.9764 19.5013 52.8017C18.3266 51.627 18.5359 49.5132 21.3125 46.7367C21.8199 46.2293 22.4171 45.7741 23.0544 45.369C22.4651 45.4782 21.8757 45.5422 21.3032 45.5422C17.3766 45.5422 15.7339 44.1954 15.7339 42.5342C15.7339 40.8729 17.3766 39.5262 21.3032 39.5262C21.5208 39.5262 21.7409 39.5355 21.9625 39.5529C21.7335 39.3662 21.5157 39.1712 21.3123 38.9678C18.5358 36.1913 18.3265 34.0774 19.5012 32.9027C20.6758 31.7281 22.7897 31.9373 25.5662 34.7139C26.0901 35.2377 26.5583 35.8574 26.9732 36.518C26.7872 35.7283 26.6715 34.9277 26.6715 34.1576C26.6715 30.231 28.0182 28.5883 29.6795 28.5883ZM30.1304 42.0425L30.109 42.1184L30.0775 42.1363L30.1304 42.0425Z"/>
</mask>
<path fill-rule="evenodd" clip-rule="evenodd" d="M72.5333 43C72.5333 44.7293 50.9335 71 28 71C12.536 71 0 58.464 0 43C0 27.536 12.536 15 28 15C51.291 15 72.5333 41.2707 72.5333 43ZM29.6795 28.5883C31.3407 28.5883 32.6875 30.231 32.6875 34.1576C32.6875 35.0065 32.5469 35.8927 32.3265 36.7603C32.7773 36.0093 33.2947 35.3013 33.8822 34.7139C36.6587 31.9374 38.7726 31.7281 39.9473 32.9028C41.1219 34.0774 40.9126 36.1913 38.1361 38.9678C37.9353 39.1686 37.7204 39.3612 37.4946 39.5458C37.6832 39.533 37.8705 39.5263 38.0561 39.5263C41.9827 39.5263 43.6254 40.873 43.6254 42.5343C43.6254 44.1955 41.9827 45.5422 38.0561 45.5422C37.524 45.5422 36.9773 45.487 36.4296 45.3915C37.0537 45.7909 37.6383 46.2386 38.1363 46.7367C40.9128 49.5132 41.1221 51.627 39.9474 52.8017C38.7727 53.9764 36.6589 53.7671 33.8824 50.9906C33.384 50.4922 32.936 49.9071 32.5363 49.2826C32.632 49.8308 32.6874 50.3782 32.6874 50.9109C32.6874 54.8375 31.3407 56.4802 29.6794 56.4802C28.0182 56.4802 26.6715 54.8375 26.6715 50.9109C26.6715 50.4382 26.7151 49.9539 26.7918 49.4677C26.4232 50.0226 26.0152 50.5418 25.5664 50.9906C22.7899 53.7671 20.676 53.9764 19.5013 52.8017C18.3266 51.627 18.5359 49.5132 21.3125 46.7367C21.8199 46.2293 22.4171 45.7741 23.0544 45.369C22.4651 45.4782 21.8757 45.5422 21.3032 45.5422C17.3766 45.5422 15.7339 44.1954 15.7339 42.5342C15.7339 40.8729 17.3766 39.5262 21.3032 39.5262C21.5208 39.5262 21.7409 39.5355 21.9625 39.5529C21.7335 39.3662 21.5157 39.1712 21.3123 38.9678C18.5358 36.1913 18.3265 34.0774 19.5012 32.9027C20.6758 31.7281 22.7897 31.9373 25.5662 34.7139C26.0901 35.2377 26.5583 35.8574 26.9732 36.518C26.7872 35.7283 26.6715 34.9277 26.6715 34.1576C26.6715 30.231 28.0182 28.5883 29.6795 28.5883ZM30.1304 42.0425L30.109 42.1184L30.0775 42.1363L30.1304 42.0425Z" fill="#EBE7E1"/>
<path d="M28 71L28 65H28V71ZM32.3265 36.7603L26.5112 35.2831L37.471 39.8481L32.3265 36.7603ZM33.8822 34.7139L38.1248 38.9565V38.9565L33.8822 34.7139ZM39.9473 32.9028L44.1899 28.6601L44.1899 28.6601L39.9473 32.9028ZM38.1361 38.9678L33.8935 34.7252H33.8935L38.1361 38.9678ZM37.4946 39.5458L33.6978 34.8999L19.1278 46.8069L37.9011 45.532L37.4946 39.5458ZM36.4296 45.3915L37.4604 39.4807L33.1951 50.445L36.4296 45.3915ZM38.1363 46.7367L42.3789 42.494L42.3789 42.494L38.1363 46.7367ZM33.8824 50.9906L29.6397 55.2332L29.6397 55.2332L33.8824 50.9906ZM32.5363 49.2826L37.5902 46.0486L26.6257 50.3143L32.5363 49.2826ZM26.7918 49.4677L32.7185 50.4026L21.7937 46.1481L26.7918 49.4677ZM25.5664 50.9906L29.809 55.2332H29.809L25.5664 50.9906ZM19.5013 52.8017L15.2587 57.0443L15.2587 57.0444L19.5013 52.8017ZM21.3125 46.7367L25.5551 50.9793H25.5551L21.3125 46.7367ZM23.0544 45.369L26.2731 50.4326L21.9608 39.4695L23.0544 45.369ZM21.3032 45.5422V39.5422H21.3032L21.3032 45.5422ZM21.9625 39.5529L21.4913 45.5344L40.6454 47.0434L25.7539 34.9026L21.9625 39.5529ZM25.5662 34.7139L21.3236 38.9565V38.9565L25.5662 34.7139ZM26.9732 36.518L21.8922 39.7091L32.8134 35.1426L26.9732 36.518ZM30.109 42.1184L33.0653 47.3396L35.2145 46.1226L35.8842 43.7453L30.109 42.1184ZM30.1304 42.0425L35.9056 43.6694L24.9048 39.094L30.1304 42.0425ZM30.0775 42.1363L24.8519 39.1878L14.2371 58.0005L33.0338 47.3574L30.0775 42.1363ZM28 77C41.5799 77 54.0745 69.3428 62.6729 62.2867C67.079 58.6709 70.7262 54.9956 73.3027 52.0702C74.5867 50.6122 75.652 49.2871 76.4321 48.202C76.8142 47.6706 77.1898 47.1111 77.498 46.5704C77.6486 46.3061 77.8418 45.9446 78.0145 45.5273C78.1121 45.2915 78.5333 44.2969 78.5333 43H66.5333C66.5333 41.8111 66.9124 40.9726 66.9269 40.9377C66.9764 40.8181 67.0175 40.7341 67.0381 40.6932C67.0496 40.6706 67.0583 40.6541 67.0638 40.6441C67.0692 40.634 67.0722 40.6287 67.0723 40.6285C67.0725 40.6282 67.0704 40.6319 67.0658 40.6397C67.0611 40.6475 67.0544 40.6585 67.0454 40.673C67.0273 40.7024 67.0019 40.7424 66.9683 40.7935C66.9003 40.8968 66.8081 41.0312 66.6887 41.1972C66.198 41.8798 65.3966 42.8908 64.2974 44.1389C62.1072 46.6256 58.9211 49.8422 55.0605 53.0103C47.1257 59.5218 37.3536 65 28 65L28 77ZM-6 43C-6 61.7777 9.22232 77 28 77V65C15.8497 65 6 55.1503 6 43H-6ZM28 9C9.22232 9 -6 24.2223 -6 43H6C6 30.8497 15.8497 21 28 21V9ZM78.5333 43C78.5333 41.7229 78.1251 40.7415 78.0284 40.5042C77.8594 40.0892 77.67 39.7289 77.5216 39.4645C77.2182 38.9237 76.8479 38.3639 76.4705 37.8312C75.7001 36.744 74.6473 35.4168 73.376 33.9562C70.8254 31.0259 67.2083 27.3448 62.8194 23.7235C54.2407 16.6454 41.7492 9 28 9V21C37.5418 21 47.317 26.49 55.1823 32.9796C59.0152 36.1421 62.1644 39.3529 64.3246 41.8347C65.4087 43.0802 66.1975 44.0891 66.6797 44.7695C66.797 44.9351 66.8876 45.0691 66.9543 45.172C66.9873 45.2229 67.0122 45.2628 67.0301 45.2921C67.0389 45.3066 67.0455 45.3176 67.05 45.3254C67.0546 45.3332 67.0567 45.3369 67.0566 45.3367C67.0565 45.3365 67.0535 45.3313 67.0482 45.3213C67.043 45.3114 67.0344 45.2951 67.0233 45.2727C67.0032 45.2323 66.9631 45.1491 66.9149 45.0309C66.9001 44.9944 66.5333 44.169 66.5333 43H78.5333ZM38.6875 34.1576C38.6875 31.6459 38.2795 29.013 36.9427 26.7991C35.4358 24.3034 32.8404 22.5883 29.6795 22.5883V34.5883C29.0708 34.5883 28.3916 34.4273 27.7693 34.0549C27.1635 33.6923 26.8253 33.2589 26.6701 33.0019C26.5257 32.7626 26.5397 32.6815 26.5858 32.8951C26.6305 33.1025 26.6875 33.5062 26.6875 34.1576H38.6875ZM38.1418 38.2375C38.4456 37.0415 38.6875 35.6422 38.6875 34.1576H26.6875C26.6875 34.3709 26.6481 34.7439 26.5112 35.2831L38.1418 38.2375ZM29.6396 30.4712C28.6115 31.4993 27.8061 32.6327 27.182 33.6726L37.471 39.8481C37.7484 39.3858 37.978 39.1034 38.1248 38.9565L29.6396 30.4712ZM44.1899 28.6601C41.9548 26.425 38.9068 25.8025 36.0765 26.5017C33.5659 27.1219 31.4156 28.6952 29.6396 30.4713L38.1248 38.9565C38.5855 38.4959 38.9113 38.2507 39.0895 38.1357C39.2731 38.0172 39.2256 38.0845 38.9543 38.1515C38.6629 38.2235 38.1173 38.2909 37.4325 38.1189C36.7292 37.9422 36.135 37.5758 35.7046 37.1454L44.1899 28.6601ZM42.3788 43.2104C44.1548 41.4344 45.7281 39.2841 46.3483 36.7735C47.0475 33.9432 46.425 30.8952 44.1899 28.6601L35.7046 37.1454C35.2742 36.715 34.9078 36.1208 34.7311 35.4175C34.5591 34.7327 34.6265 34.1871 34.6985 33.8957C34.7655 33.6244 34.8328 33.5769 34.7143 33.7605C34.5993 33.9387 34.3541 34.2645 33.8935 34.7252L42.3788 43.2104ZM41.2914 44.1917C41.6562 43.8935 42.0221 43.5671 42.3788 43.2104L33.8935 34.7252C33.8486 34.7701 33.7846 34.8289 33.6978 34.8999L41.2914 44.1917ZM38.0561 33.5263C37.726 33.5263 37.4028 33.5382 37.0881 33.5596L37.9011 45.532C37.9635 45.5278 38.0151 45.5263 38.0561 45.5263V33.5263ZM49.6254 42.5343C49.6254 39.3733 47.9104 36.778 45.4146 35.271C43.2008 33.9343 40.5679 33.5263 38.0561 33.5263V45.5263C38.7076 45.5263 39.1113 45.5833 39.3187 45.628C39.5323 45.674 39.4511 45.688 39.2119 45.5436C38.9549 45.3884 38.5214 45.0503 38.1589 44.4444C37.7865 43.8221 37.6254 43.143 37.6254 42.5343H49.6254ZM38.0561 51.5422C40.5679 51.5422 43.2008 51.1342 45.4146 49.7975C47.9104 48.2906 49.6254 45.6952 49.6254 42.5343H37.6254C37.6254 41.9255 37.7865 41.2464 38.1589 40.6241C38.5214 40.0182 38.9549 39.6801 39.2119 39.5249C39.4511 39.3805 39.5323 39.3945 39.3187 39.4405C39.1113 39.4852 38.7076 39.5422 38.0561 39.5422V51.5422ZM35.3988 51.3023C36.2191 51.4453 37.116 51.5422 38.0561 51.5422V39.5422C37.9321 39.5422 37.7354 39.5286 37.4604 39.4807L35.3988 51.3023ZM42.3789 42.494C41.5035 41.6186 40.5561 40.9089 39.6641 40.338L33.1951 50.445C33.5513 50.673 33.773 50.8586 33.8937 50.9793L42.3789 42.494ZM44.1901 57.0444C46.4252 54.8092 47.0477 51.7613 46.3485 48.931C45.7283 46.4203 44.155 44.2701 42.3789 42.494L33.8937 50.9793C34.3543 51.4399 34.5995 51.7657 34.7145 51.944C34.833 52.1276 34.7657 52.0801 34.6987 51.8088C34.6267 51.5173 34.5593 50.9717 34.7313 50.287C34.908 49.5836 35.2744 48.9895 35.7048 48.5591L44.1901 57.0444ZM29.6397 55.2332C31.4158 57.0093 33.566 58.5826 36.0767 59.2028C38.907 59.9019 41.955 59.2795 44.1901 57.0444L35.7048 48.5591C36.1352 48.1287 36.7293 47.7623 37.4327 47.5856C38.1174 47.4136 38.6631 47.4809 38.9545 47.553C39.2258 47.62 39.2733 47.6873 39.0897 47.5688C38.9114 47.4538 38.5857 47.2086 38.125 46.7479L29.6397 55.2332ZM27.4825 52.5165C28.0536 53.409 28.7637 54.3572 29.6397 55.2332L38.125 46.7479C38.0043 46.6272 37.8184 46.4053 37.5902 46.0486L27.4825 52.5165ZM26.6257 50.3143C26.6738 50.5897 26.6874 50.7867 26.6874 50.9109H38.6874C38.6874 49.9697 38.5903 49.072 38.447 48.2509L26.6257 50.3143ZM26.6874 50.9109C26.6874 51.5623 26.6304 51.9661 26.5857 52.1734C26.5397 52.387 26.5256 52.3059 26.6701 52.0667C26.8253 51.8097 27.1634 51.3762 27.7692 51.0136C28.3916 50.6412 29.0707 50.4802 29.6794 50.4802V62.4802C32.8404 62.4802 35.4357 60.7651 36.9427 58.2694C38.2794 56.0555 38.6874 53.4226 38.6874 50.9109H26.6874ZM29.6794 50.4802C30.2881 50.4802 30.9673 50.6412 31.5896 51.0136C32.1954 51.3762 32.5336 51.8097 32.6888 52.0667C32.8332 52.3059 32.8192 52.387 32.7731 52.1734C32.7285 51.9661 32.6715 51.5623 32.6715 50.9109H20.6715C20.6715 53.4226 21.0794 56.0555 22.4162 58.2694C23.9231 60.7651 26.5185 62.4802 29.6794 62.4802V50.4802ZM32.6715 50.9109C32.6715 50.8019 32.682 50.634 32.7185 50.4026L20.865 48.5327C20.7482 49.2737 20.6715 50.0744 20.6715 50.9109H32.6715ZM29.809 55.2332C30.5997 54.4426 31.2532 53.5952 31.7898 52.7873L21.7937 46.1481C21.5931 46.4501 21.4307 46.6409 21.3237 46.7479L29.809 55.2332ZM15.2587 57.0444C17.4938 59.2795 20.5417 59.9019 23.3721 59.2028C25.8827 58.5826 28.033 57.0093 29.809 55.2332L21.3237 46.7479C20.8631 47.2086 20.5373 47.4538 20.3591 47.5688C20.1755 47.6873 20.2229 47.62 20.4942 47.5529C20.7857 47.4809 21.3313 47.4135 22.0161 47.5856C22.7194 47.7623 23.3136 48.1287 23.744 48.5591L15.2587 57.0444ZM17.0698 42.494C15.2938 44.2701 13.7205 46.4203 13.1003 48.931C12.4011 51.7613 13.0236 54.8092 15.2587 57.0443L23.744 48.5591C24.1744 48.9895 24.5408 49.5836 24.7175 50.287C24.8895 50.9717 24.8221 51.5173 24.7501 51.8088C24.6831 52.0801 24.6158 52.1275 24.7343 51.9439C24.8493 51.7657 25.0945 51.4399 25.5551 50.9793L17.0698 42.494ZM19.8358 40.3054C18.928 40.8824 17.9613 41.6026 17.0698 42.494L25.5551 50.9793C25.6784 50.856 25.9062 50.6658 26.2731 50.4326L19.8358 40.3054ZM21.3032 51.5422C22.3136 51.5422 23.2754 51.4302 24.1481 51.2684L21.9608 39.4695C21.6549 39.5262 21.4378 39.5422 21.3032 39.5422V51.5422ZM9.73386 42.5342C9.73386 45.6951 11.4489 48.2905 13.9447 49.7974C16.1585 51.1342 18.7914 51.5422 21.3032 51.5422L21.3032 39.5422C20.6517 39.5422 20.248 39.4852 20.0406 39.4405C19.827 39.3944 19.9082 39.3804 20.1474 39.5248C20.4044 39.68 20.8379 40.0182 21.2004 40.624C21.5728 41.2463 21.7339 41.9255 21.7339 42.5342H9.73386ZM21.3032 33.5262C18.7914 33.5262 16.1585 33.9342 13.9447 35.2709C11.4489 36.7779 9.73386 39.3733 9.73386 42.5342H21.7339C21.7339 43.1429 21.5728 43.8221 21.2004 44.4444C20.8379 45.0502 20.4044 45.3883 20.1474 45.5435C19.9082 45.688 19.827 45.6739 20.0406 45.6279C20.248 45.5832 20.6517 45.5262 21.3032 45.5262V33.5262ZM22.4338 33.5715C22.0679 33.5426 21.6902 33.5262 21.3032 33.5262V45.5262C21.3515 45.5262 21.4139 45.5283 21.4913 45.5344L22.4338 33.5715ZM17.0696 43.2104C17.4309 43.5717 17.8015 43.9019 18.1712 44.2032L25.7539 34.9026C25.6654 34.8305 25.6005 34.7707 25.5549 34.7251L17.0696 43.2104ZM15.2585 28.6601C13.0234 30.8952 12.4009 33.9432 13.1001 36.7735C13.7203 39.2841 15.2936 41.4344 17.0696 43.2104L25.5549 34.7251C25.0943 34.2645 24.8491 33.9387 24.7341 33.7605C24.6156 33.5769 24.6829 33.6244 24.7499 33.8956C24.8219 34.1871 24.8893 34.7327 24.7173 35.4175C24.5406 36.1208 24.1742 36.715 23.7438 37.1454L15.2585 28.6601ZM29.8088 30.4712C28.0328 28.6952 25.8825 27.1219 23.3719 26.5017C20.5416 25.8025 17.4936 26.425 15.2585 28.6601L23.7438 37.1454C23.3134 37.5758 22.7193 37.9422 22.0159 38.1189C21.3311 38.2909 20.7855 38.2235 20.4941 38.1515C20.2228 38.0845 20.1753 38.0172 20.3589 38.1357C20.5371 38.2507 20.8629 38.4959 21.3236 38.9565L29.8088 30.4712ZM32.0542 33.3269C31.4668 32.3916 30.7285 31.3909 29.8088 30.4712L21.3236 38.9565C21.4516 39.0846 21.6498 39.3232 21.8922 39.7091L32.0542 33.3269ZM20.6715 34.1576C20.6715 35.5081 20.8716 36.7836 21.133 37.8935L32.8134 35.1426C32.7028 34.673 32.6715 34.3472 32.6715 34.1576H20.6715ZM29.6795 22.5883C26.5186 22.5883 23.9232 24.3034 22.4162 26.7991C21.0795 29.013 20.6715 31.6459 20.6715 34.1576H32.6715C32.6715 33.5062 32.7285 33.1025 32.7732 32.8951C32.8192 32.6815 32.8333 32.7626 32.6888 33.0019C32.5336 33.2589 32.1955 33.6923 31.5897 34.0549C30.9674 34.4273 30.2882 34.5883 29.6795 34.5883V22.5883ZM35.8842 43.7453L35.9056 43.6694L24.3552 40.4156L24.3338 40.4915L35.8842 43.7453ZM33.0338 47.3574L33.0653 47.3396L27.1527 36.8973L27.1212 36.9152L33.0338 47.3574ZM24.9048 39.094L24.8519 39.1878L35.303 45.0848L35.356 44.9909L24.9048 39.094Z" fill="#EBE7E1" mask="url(#path-1-inside-1_165_1263)"/>
<path d="M110.129 22.0264C114.21 22.0264 117.604 22.5288 120.311 23.5337C123.018 24.5181 125.048 25.9946 126.401 27.9634C127.776 29.9321 128.463 32.3828 128.463 35.3154C128.463 37.1406 128.155 38.8018 127.54 40.2988C126.924 41.7959 126.043 43.1392 124.894 44.3286C123.766 45.4976 122.413 46.5229 120.834 47.4048L133.938 67H120.157L110.621 50.6348H107.545V67H95.3937V22.0264H110.129ZM109.944 31.2241H107.545V41.4985H109.821C111.687 41.4985 113.215 41.0884 114.404 40.2681C115.594 39.4478 116.189 37.9814 116.189 35.8691C116.189 34.4131 115.696 33.2749 114.712 32.4546C113.728 31.6343 112.138 31.2241 109.944 31.2241ZM153.01 31.5317C156.394 31.5317 159.317 32.1265 161.777 33.3159C164.238 34.4849 166.135 36.2485 167.468 38.6069C168.801 40.9653 169.468 43.9185 169.468 47.4663V52.8188H147.965C148.068 54.644 148.745 56.1411 149.996 57.3101C151.267 58.479 153.133 59.0635 155.594 59.0635C157.768 59.0635 159.757 58.8481 161.562 58.4175C163.387 57.9868 165.264 57.3203 167.192 56.418V65.062C165.51 65.9438 163.674 66.5898 161.685 67C159.696 67.4102 157.184 67.6152 154.149 67.6152C150.642 67.6152 147.504 66.9897 144.735 65.7388C141.967 64.4878 139.783 62.5498 138.183 59.9248C136.604 57.2998 135.815 53.9263 135.815 49.8042C135.815 45.6206 136.532 42.1855 137.968 39.499C139.403 36.792 141.413 34.7925 143.997 33.5005C146.581 32.188 149.586 31.5317 153.01 31.5317ZM153.441 39.7144C152.026 39.7144 150.837 40.1655 149.873 41.0679C148.929 41.9497 148.376 43.3442 148.212 45.2515H158.547C158.527 44.2261 158.322 43.293 157.932 42.4521C157.543 41.6113 156.968 40.9448 156.21 40.4526C155.471 39.9604 154.548 39.7144 153.441 39.7144ZM167.622 18.7349V19.3809C166.884 19.9756 165.941 20.7036 164.792 21.5649C163.644 22.4058 162.423 23.2876 161.131 24.2104C159.86 25.1128 158.619 25.9741 157.409 26.7944C156.22 27.6147 155.194 28.2915 154.333 28.8247H146.335V27.9326C147.053 27.1533 147.914 26.2305 148.919 25.1641C149.924 24.0771 150.929 22.9697 151.934 21.8418C152.939 20.7139 153.779 19.6782 154.456 18.7349H167.622ZM218.81 31.5317C222.788 31.5317 225.823 32.5469 227.915 34.5771C230.027 36.6074 231.084 39.8579 231.084 44.3286V67H219.056V48.0508C219.056 45.4053 218.697 43.5698 217.979 42.5444C217.282 41.4985 216.236 40.9756 214.841 40.9756C212.893 40.9756 211.54 41.8267 210.781 43.5288C210.043 45.231 209.673 47.6406 209.673 50.7578V67H197.615V48.0508C197.615 46.3691 197.461 45.0156 197.153 43.9902C196.866 42.9443 196.425 42.1855 195.831 41.7139C195.236 41.2217 194.487 40.9756 193.585 40.9756C192.211 40.9756 191.134 41.396 190.355 42.2368C189.596 43.0571 189.063 44.2671 188.755 45.8667C188.448 47.4663 188.294 49.4248 188.294 51.7422V67H176.266V32.147H185.341L187.094 36.4536H187.433C188.048 35.5103 188.838 34.6694 189.801 33.9312C190.786 33.1929 191.944 32.6084 193.277 32.1777C194.631 31.7471 196.169 31.5317 197.892 31.5317C200.455 31.5317 202.568 31.9624 204.229 32.8237C205.89 33.6851 207.243 34.8745 208.289 36.3921H208.658C209.766 34.8335 211.191 33.6338 212.934 32.793C214.677 31.9521 216.636 31.5317 218.81 31.5317ZM251.356 32.147V67H239.328V32.147H251.356ZM245.388 18.1196C247.11 18.1196 248.608 18.4785 249.879 19.1963C251.171 19.9141 251.817 21.3394 251.817 23.4722C251.817 25.5435 251.171 26.9482 249.879 27.6865C248.608 28.4043 247.11 28.7632 245.388 28.7632C243.624 28.7632 242.117 28.4043 240.866 27.6865C239.635 26.9482 239.02 25.5435 239.02 23.4722C239.02 21.3394 239.635 19.9141 240.866 19.1963C242.117 18.4785 243.624 18.1196 245.388 18.1196Z" fill="#EBE7E1"/>
</svg>
